# xmcd
#
# Track frame offsets:
# 183
# 13725
# 23490
# 37390
# 47453
# 58603
# 74478
# 85068
# 94235
# 103988
# 115603
# 129545
# 145833
# 161353
# 172380
# 181825
# 190825
# 204910
# 217758
# 228205
# 239425
# 249638
# 260020
# 273390
#
# Disc length: 3868 seconds
#
#
# Revision: 1
# Processed by: cddbd v1.5.1PL0 Copyright (c) Steve Scherf et al.
# Submitted via: FreeRIP 2.91 
#
DISCID=540f1a18
DTITLE=Hill, Wiltschinsky - Guitar Legends
DYEAR=1994
DGENRE=blues
TTITLE0=Apache
TTITLE1=Walk Don't Run
TTITLE2=Parisienne Walkways
TTITLE3=Wonderful Land
TTITLE4=Scarlett O'Hara
TTITLE5=Sylvia
TTITLE6=Havah Nagila
TTITLE7=Man Of Mystery
TTITLE8=Perfidia
TTITLE9=Foot Tapper
TTITLE10=Albatross
TTITLE11=Sabre Dance
TTITLE12=Ghost Rides In The Sky
TTITLE13=Guitar Boogie Shuffle
TTITLE14=Apple Jack
TTITLE15=Shindig
TTITLE16=Jessica
TTITLE17=The Rise And Fall Of Flingel Bunt
TTITLE18=The Cruel Sea
TTITLE19=Diamond
TTITLE20=Wipe Out
TTITLE21=Peter Gunn Theme
TTITLE22=Classical Gas
TTITLE23=Going Home
EXTD=PK 510
EXTT0=
EXTT1=
EXTT2=
EXTT3=
EXTT4=
EXTT5=
EXTT6=
EXTT7=
EXTT8=
EXTT9=
EXTT10=
EXTT11=
EXTT12=
EXTT13=
EXTT14=
EXTT15=
EXTT16=
EXTT17=
EXTT18=
EXTT19=
EXTT20=
EXTT21=
EXTT22=
EXTT23=
PLAYORDER=
